<svg width="56" height="42" viewBox="0 0 56 42" fill="none" xmlns="http://www.w3.org/2000/svg">
<path d="M42 19L48.0001 25L54.0001 19" stroke="white" stroke-width="4" stroke-linecap="round" stroke-linejoin="round"/>
<path d="M35.3333 39.5V35.3333C35.3333 33.1232 34.4553 31.0036 32.8925 29.4408C31.3297 27.878 29.2101 27 26.9999 27H10.3333C8.12318 27 6.00357 27.878 4.44077 29.4408C2.87797 31.0036 2 33.1232 2 35.3333V39.5" stroke="white" stroke-width="4" stroke-linecap="round" stroke-linejoin="round"/>
<path d="M18.6664 18.6667C23.2688 18.6667 26.9998 14.9357 26.9998 10.3333C26.9998 5.73096 23.2688 2 18.6664 2C14.064 2 10.333 5.73096 10.333 10.3333C10.333 14.9357 14.064 18.6667 18.6664 18.6667Z" stroke="white" stroke-width="4" stroke-linecap="round" stroke-linejoin="round"/>
</svg>
